<?xml version="1.0" encoding="utf-8" ?>
<svg
  xmlns="http://www.w3.org/2000/svg"
  xmlns:xlink="http://www.w3.org/1999/xlink" width="1000" height="1000" viewBox="0 0 1000 1000">
  
  <g fill="#ffffff" stroke="#000000" stroke-width="35" stroke-linejoin="round">
  
  <path  d="M658.973 192.103C662.75 191.607 672.96 191.795 676.971 191.868C706.071 192.4 737.157 197.746 763.894 209.499C768.909 211.703 776.089 214.567 780.903 217.099C813.126 234.047 841.103 255.758 863.672 284.42C869.239 291.477 874.057 299.362 878.894 306.891C916.553 365.508 926.401 442.262 905.923 508.721C903.027 518.118 900.655 527.005 896.593 536.282C870.512 595.872 821.776 642.623 761.154 666.204C742.084 673.846 722.013 678.699 701.558 680.616C686.952 682.112 670.14 681.982 655.401 682.014L598.128 682.086L525.975 682.08C520.247 682.076 490.098 682.696 486.735 681.218C486.448 676.611 496.901 654.693 499.157 649.514L515.986 610.732C522.832 595.179 529.312 579.445 535.852 563.759C538.643 557.062 540.124 557.302 547.109 557.33C554.934 557.362 562.78 557.478 570.606 557.541L641.658 558.114C664.437 558.19 688.771 559.446 710.467 551.492C714.454 549.457 719.177 547.744 723.323 545.802C744.697 535.791 763.897 518.485 775.042 497.565C790.765 468.081 794.117 433.555 784.359 401.597C775.064 371.028 752.116 344.247 724.222 330.242C693.141 314.638 665.377 312.866 632.851 324.198C605.598 333.692 583.139 352.855 568.562 377.763C560.632 391.312 554.732 406.523 548.67 420.364L520.346 486.33C516.071 496.172 513.403 503.879 508.369 513.627L419.977 513.648C412.36 513.687 378.378 514.737 373.067 513.276C373.725 508.131 381.373 492.161 383.628 486.88L411.737 421.923C441.872 352.486 460.105 292.087 522.548 243.273C556.622 216.37 597.329 199.169 640.37 193.487C646.134 192.75 653.117 192.454 658.973 192.103Z"/>
  <path  d="M343.922 316.647L383.341 316.564C390.554 316.553 398.937 316.313 405.987 316.778C404.918 326.695 399.267 336.343 395.37 345.623L370.089 404.209L320.503 519.073L277.07 620.428C268.583 640.477 259.993 662.549 250.562 681.996C207.205 683.24 159.019 682.605 115.355 682.458L84.1908 682.349C79.1531 682.345 68.771 682.635 64.1601 681.683L63.9001 681.097C65.2532 676.796 72.4433 666.511 75.1657 662.351L98.949 626.338C104.624 618.299 108.366 611.393 113.53 603.633L172.147 514.123L208.925 458.469C212.859 452.413 216.758 448.272 220.32 441.674C199.815 440.369 174.276 442.067 153.069 441.441C149.199 437.744 147.001 433.756 143.802 429.638C137.756 421.856 132.332 413.381 126.562 405.5L90.092 355.515C82.2883 344.998 68.5153 327.801 62.9091 316.756C93.3997 317.195 125.346 316.751 155.993 316.757L343.922 316.647Z"/>
  <path  d="M483.924 557.363C485.733 557.174 486.939 556.723 488.284 558.011C488.135 563.969 467.38 609.349 463.525 618.332L433.695 688.272C427.684 702.203 422.912 715.035 416.753 729.896C408.053 749.325 400.388 769.512 390.564 788.367C390.152 789.158 379.882 794.032 378.412 794.832C355.441 807.339 331.619 818.307 308.277 830.121C300.346 834.135 292.422 838.462 284.426 842.369C264.614 850.85 243.184 864.527 223.765 872.847C222.237 873.381 222.308 873.355 220.683 873.381L220.335 872.76C221.488 867.319 231.362 846.035 233.962 840.11L262.019 774.824C266.731 763.83 271.091 752.687 275.826 741.706C281.778 727.905 288.027 714.288 293.694 700.353C302.494 678.713 310.551 656.474 320.57 635.368C325.385 625.223 333.615 609.178 341.113 601.284C387.819 552.112 422.832 558.807 483.924 557.363Z"/>
</svg>